<?xml version="1.0" encoding="utf-8"?>
<!-- Generator: Adobe Illustrator 27.0.0, SVG Export Plug-In . SVG Version: 6.00 Build 0)  -->
<svg version="1.1" id="Capa_1" xmlns="http://www.w3.org/2000/svg" xmlns:xlink="http://www.w3.org/1999/xlink" x="0px" y="0px"
	 viewBox="0 0 693.92 118.77" style="enable-background:new 0 0 693.92 118.77;" xml:space="preserve">
<style type="text/css">
	.st0{fill:#1D2A3A;}
	.st1{fill:#5BBA9E;}
</style>
<g>
	<g>
		<g>
			<path class="st0" d="M238.47,95.56c-7.01-3.91-12.5-9.35-16.45-16.32c-3.96-6.97-5.94-14.88-5.94-23.74
				c0-8.86,1.98-16.77,5.94-23.74c3.96-6.97,9.44-12.41,16.45-16.32c7.01-3.91,14.99-5.87,23.94-5.87c13.42,0,24.39,4.6,32.91,13.81
				l-12.13,12c-5.42-6.02-12.39-9.03-20.91-9.03c-5.51,0-10.45,1.21-14.84,3.62c-4.39,2.41-7.81,5.83-10.26,10.26
				s-3.68,9.53-3.68,15.29c0,5.76,1.23,10.86,3.68,15.29c2.45,4.43,5.87,7.85,10.26,10.26c4.39,2.41,9.33,3.61,14.84,3.61
				c8.6,0,15.61-2.97,21.03-8.9l12,11.87c-8.52,9.21-19.49,13.81-32.91,13.81C253.46,101.43,245.48,99.47,238.47,95.56z"/>
			<path class="st0" d="M320.99,96.53c-5.34-3.01-9.51-7.18-12.52-12.52c-3.01-5.33-4.52-11.4-4.52-18.2c0-6.8,1.5-12.88,4.52-18.26
				c3.01-5.37,7.18-9.55,12.52-12.52c5.33-2.97,11.4-4.45,18.2-4.45c6.8,0,12.88,1.51,18.26,4.51c5.38,3.01,9.55,7.19,12.52,12.52
				s4.45,11.4,4.45,18.2c0,6.88-1.48,12.99-4.45,18.32c-2.97,5.34-7.12,9.49-12.45,12.45c-5.34,2.97-11.44,4.45-18.32,4.45
				C332.39,101.04,326.32,99.54,320.99,96.53z M352.48,79.88c3.44-3.61,5.16-8.3,5.16-14.06c0-5.76-1.72-10.45-5.16-14.06
				c-3.44-3.61-7.87-5.42-13.29-5.42c-5.42,0-9.85,1.81-13.29,5.42c-3.44,3.61-5.16,8.3-5.16,14.06c0,5.76,1.72,10.45,5.16,14.06
				c3.44,3.61,7.87,5.42,13.29,5.42C344.61,85.3,349.04,83.49,352.48,79.88z"/>
			<path class="st0" d="M457.9,1.94v98.07h-14.97l-1.68-7.87c-2.58,2.84-5.76,5.03-9.55,6.58c-3.79,1.55-7.87,2.32-12.26,2.32
				c-6.37,0-12.04-1.5-17.03-4.51c-4.99-3.01-8.88-7.18-11.68-12.52c-2.8-5.33-4.19-11.4-4.19-18.2c0-6.8,1.4-12.88,4.19-18.26
				c2.79-5.37,6.69-9.55,11.68-12.52c4.99-2.97,10.67-4.45,17.03-4.45c4.3,0,8.32,0.77,12.07,2.32c3.74,1.55,6.95,3.66,9.61,6.32
				V1.94H457.9z M431.51,83.3c2.88-1.5,5.2-3.7,6.97-6.58c1.76-2.88,2.64-6.3,2.64-10.26v-1.29c0-3.96-0.88-7.38-2.64-10.26
				c-1.76-2.88-4.09-5.07-6.97-6.58c-2.88-1.51-6-2.26-9.35-2.26c-5.42,0-9.92,1.87-13.49,5.61c-3.57,3.74-5.36,8.45-5.36,14.13
				c0,5.68,1.78,10.39,5.36,14.13c3.57,3.74,8.06,5.61,13.49,5.61C425.51,85.56,428.63,84.8,431.51,83.3z"/>
			<path class="st0" d="M538.81,72.14h-48.65c1.2,4.56,3.44,8.15,6.71,10.78c3.27,2.62,7.23,3.94,11.87,3.94
				c2.84,0,5.76-0.62,8.77-1.87c3.01-1.24,5.68-2.95,8-5.1l9.29,11.1c-3.44,3.27-7.38,5.77-11.81,7.48
				c-4.43,1.72-9.18,2.58-14.26,2.58c-6.88,0-13.03-1.5-18.45-4.51c-5.42-3.01-9.64-7.18-12.65-12.52
				c-3.01-5.33-4.52-11.4-4.52-18.2c0-6.8,1.42-12.88,4.26-18.26c2.84-5.37,6.79-9.55,11.87-12.52c5.07-2.97,10.84-4.45,17.29-4.45
				c6.37,0,12.04,1.44,17.03,4.32c4.99,2.88,8.88,6.89,11.68,12c2.79,5.12,4.19,10.95,4.19,17.49
				C539.46,66.72,539.24,69.3,538.81,72.14z M495.91,48.65c-2.97,2.58-4.93,6.07-5.87,10.45h32.78c-0.69-4.39-2.5-7.87-5.42-10.45
				c-2.93-2.58-6.54-3.87-10.84-3.87C502.42,44.78,498.88,46.07,495.91,48.65z"/>
			<path class="st0" d="M556.62,80.65c2.5,1.98,5.25,3.51,8.26,4.58c3.01,1.08,6.06,1.61,9.16,1.61c3.18,0,5.65-0.5,7.42-1.48
				c1.76-0.99,2.65-2.43,2.65-4.32c0-1.98-0.95-3.53-2.84-4.64c-1.89-1.12-4.9-2.37-9.03-3.74c-4.39-1.46-8.02-2.92-10.9-4.39
				c-2.88-1.46-5.36-3.57-7.42-6.32c-2.07-2.75-3.1-6.32-3.1-10.71c0-6.11,2.34-11.08,7.03-14.9c4.69-3.83,10.82-5.74,18.39-5.74
				c8.95,0,16.95,2.58,24,7.74l-8.26,12.52c-5.16-4.04-10.5-6.07-16-6.07c-2.67,0-4.73,0.47-6.19,1.42
				c-1.46,0.95-2.19,2.24-2.19,3.87c0,1.8,0.88,3.2,2.64,4.19c1.76,0.99,4.67,2.13,8.71,3.42c4.56,1.55,8.28,3.03,11.16,4.45
				c2.88,1.42,5.4,3.57,7.55,6.45c2.15,2.88,3.23,6.6,3.23,11.16c0,4.21-1.14,7.91-3.42,11.1c-2.28,3.18-5.46,5.68-9.55,7.48
				c-4.09,1.81-8.84,2.71-14.26,2.71c-4.56,0-8.97-0.58-13.23-1.74c-4.26-1.16-8.02-2.82-11.29-4.97L556.62,80.65z"/>
			<path class="st0" d="M663.21,96.27c-5.85,3.18-12.18,4.77-18.97,4.77c-7.48,0-13.38-2.04-17.68-6.13
				c-4.3-4.08-6.45-9.66-6.45-16.71V46.46h-10.97V31.62h10.97V11.87h16.78v19.74h24.39v14.84h-24.39v29.3c0,6.37,3.1,9.55,9.29,9.55
				c3.78,0,7.61-1.03,11.48-3.1L663.21,96.27z"/>
			<path class="st0" d="M675.02,18.84c-2.02-2.06-3.03-4.69-3.03-7.87c0-3.27,1.01-5.91,3.03-7.94c2.02-2.02,4.67-3.03,7.94-3.03
				c3.18,0,5.81,1.01,7.87,3.03c2.07,2.02,3.1,4.67,3.1,7.94c0,3.18-1.03,5.81-3.1,7.87c-2.06,2.07-4.69,3.1-7.87,3.1
				C679.68,21.94,677.04,20.91,675.02,18.84z M691.34,31.62v68.39h-16.78V31.62H691.34z"/>
		</g>
	</g>
	<g>
		<g>
			<path class="st1" d="M131.28,118.77c-2.91,0-5.83-1.06-8.13-3.2c-4.82-4.49-5.09-12.05-0.6-16.87l35.88-38.5l-29.58-29.18
				l-61.28,82.92c-2.08,2.82-5.3,4.58-8.79,4.81c-3.5,0.24-6.92-1.07-9.36-3.58L3.38,67.86c-4.47-4.6-4.51-11.91-0.09-16.55
				L48.62,3.7c4.55-4.77,12.1-4.95,16.87-0.41c4.77,4.55,4.96,12.1,0.41,16.87L28.5,59.45l28.22,29l61.11-82.68
				c2.06-2.78,5.22-4.54,8.67-4.81c3.44-0.25,6.85,0.97,9.31,3.4l47.64,46.99c4.6,4.54,4.75,11.91,0.35,16.63l-43.79,46.99
				C137.66,117.5,134.47,118.77,131.28,118.77z"/>
		</g>
	</g>
</g>
</svg>
